<svg xmlns="http://www.w3.org/2000/svg" width="1200" height="560" viewBox="0 0 1200 560"><defs><marker id="a" viewBox="0 0 10 10" refX="9" refY="5" markerWidth="6" markerHeight="6" orient="auto"><path d="M0 0L10 5L0 10Z" fill="#222"/></marker><style>text{font-family:Arial,sans-serif;fill:#111}.h{font-size:20px;font-weight:700}.b{font-size:16px}.s{font-size:14px}.box{fill:#fff;stroke:#222;stroke-width:1.7}.arrow{fill:none;stroke:#222;stroke-width:1.8;marker-end:url(#a)}.dash{fill:none;stroke:#555;stroke-width:1.7;stroke-dasharray:7 5;marker-end:url(#a)}</style></defs><rect width="1200" height="560" fill="#fff"/>
<rect x="45" y="90" width="165" height="78" class="box"/><text x="128" y="121" text-anchor="middle" class="h">Researcher</text><text x="128" y="147" text-anchor="middle" class="b">retrieve from R1</text>
<rect x="275" y="90" width="165" height="78" class="box"/><text x="358" y="121" text-anchor="middle" class="h">Writer</text><text x="358" y="147" text-anchor="middle" class="b">generate draft</text>
<rect x="505" y="90" width="165" height="78" class="box"/><text x="588" y="121" text-anchor="middle" class="h">Critic</text><text x="588" y="147" text-anchor="middle" class="b">score and diagnose</text>
<polygon points="790,79 865,129 790,179 715,129" class="box"/><text x="790" y="125" text-anchor="middle" class="h">Pass?</text><text x="790" y="148" text-anchor="middle" class="s">threshold test</text>
<rect x="960" y="90" width="175" height="78" class="box"/><text x="1048" y="121" text-anchor="middle" class="h">Seal output</text><text x="1048" y="147" text-anchor="middle" class="b">accepted or best</text>
<path d="M210 129H275" class="arrow"/><path d="M440 129H505" class="arrow"/><path d="M670 129H715" class="arrow"/><path d="M865 129H960" class="arrow"/><text x="909" y="115" text-anchor="middle" class="s">yes</text>
<rect x="505" y="260" width="165" height="78" class="box"/><text x="588" y="291" text-anchor="middle" class="h">Reflector</text><text x="588" y="317" text-anchor="middle" class="b">prepare feedback</text>
<path d="M790 179V220H588V260" class="dash"/><text x="704" y="211" text-anchor="middle" class="s">no; attempt &lt; 3</text><path d="M505 299H358V168" class="dash"/><text x="430" y="286" text-anchor="middle" class="s">revise</text><path d="M505 326C350 400 128 370 128 168" class="dash"/><text x="300" y="394" text-anchor="middle" class="s">retrieve again</text>
<line x1="45" y1="455" x2="1135" y2="455" stroke="#777" stroke-width="1" stroke-dasharray="5 5"/><text x="50" y="482" class="s">outside the generation loop</text><rect x="775" y="474" width="185" height="58" class="box"/><text x="868" y="500" text-anchor="middle" class="h">Verifier-B</text><text x="868" y="522" text-anchor="middle" class="s">post-hoc only</text><path d="M1048 168V503H960" class="dash"/></svg>